<svg data-v-423bf9ae="" xmlns="http://www.w3.org/2000/svg" viewBox="0 0 2998 2689" class="iconLeft"><!----><!----><!----><g data-v-423bf9ae="" id="b8c64083-d971-4cd2-b2f9-181c38085ba1" fill="white" transform="matrix(6.018702832517122,0,0,6.018702832517122,2738.1635475097396,1282.115514328305)"><path d="M5.28 8.36C5.28 9.97 3.56 9.77 2.58 9.79C2.53 9.74 2.48 9.73 2.45 9.69C2.44 9.51 2.30 8.50 2.30 8.05C2.30 7.95 2.31 7.53 2.35 7.31C2.66 7.27 3.25 7.17 3.36 7.17C3.68 7.17 5.28 7.39 5.28 8.36ZM7.08 8.39C7.08 7.21 6.79 6.15 5.04 5.75C4.70 5.68 3.91 5.54 3.81 5.54C3.70 5.54 3.49 5.61 3.36 5.57C2.98 5.47 1.82 5.68 1.60 5.68C1.48 5.68 1.01 5.59 0.90 5.59C0.78 5.59 0.67 5.63 0.60 5.68C0.49 6.27 0.49 7.36 0.49 7.46C0.49 7.57 0.48 8.64 0.55 9.18C0.56 9.31 0.63 9.44 0.63 9.55L0.63 10.98C0.63 12.60 0.62 11.37 0.73 14.64C0.73 14.78 0.77 15.02 0.77 15.20L2.14 15.20C2.52 15.09 2.25 14.64 2.25 14.42L2.25 12.60C2.25 12.49 2.34 11.80 2.35 11.40C2.48 11.26 2.60 11.23 2.70 11.23C2.80 11.23 3.78 11.45 3.88 11.45C5.11 11.45 7.08 10.04 7.08 8.39ZM16.00 10.49C16.00 11.68 14.77 13.61 13.23 13.61C12.35 13.61 10.75 13.03 9.98 11.66C9.94 11.59 9.49 10.74 9.49 10.53C9.49 9.74 10.65 7.48 11.62 7.45C11.77 7.38 12.08 7.32 12.22 7.32C12.32 7.32 13.43 7.38 13.92 7.43C14.07 7.45 14.35 7.60 14.52 7.67C14.91 7.83 15.23 8.36 15.33 8.67C15.40 8.93 15.67 9.20 15.79 9.49C15.93 9.80 16.00 10.37 16.00 10.49ZM17.60 9.94C17.60 9.27 17.56 9.14 17.18 8.22C16.66 7 15.08 6.02 14.24 5.70C13.90 5.56 12.96 5.49 12.87 5.49C12.03 5.49 10.98 6.09 10.33 6.43C9.58 6.83 8.99 7.80 8.71 8.34C8.26 9.18 8.12 9.67 8.12 10.21C8.12 10.81 8.48 12.36 8.64 12.71C8.89 13.29 9.38 13.52 9.87 14C10.00 14.11 10.19 14.15 10.28 14.25C11.06 15.09 11.65 15.16 12.31 15.16C15.43 15.16 17.60 13.29 17.60 9.94ZM27.37 12.87C26.95 12.64 26.50 12.45 26.14 12.25C25.77 13.13 24.30 13.69 23.56 13.69C22.18 13.69 20.03 12.43 20.03 10.65C20.03 10.16 20.27 9.11 20.37 8.99C21.57 7.41 22.23 7.10 23.39 7.10C23.51 7.10 24.43 7.13 24.78 7.25C25.27 7.42 25.76 8.08 25.86 8.08C26.17 8.08 27.02 7.42 27.33 7.46C27.23 7.36 27.13 7.27 27.10 7.15C26.81 6.19 25.34 5.33 24.47 5.33C24.35 5.33 23.02 5.45 22.33 5.59C22.09 5.63 21.85 5.85 21.63 5.92C21.10 6.09 20.52 6.29 19.95 6.71C18.82 7.50 18.79 8.48 18.72 9.25C18.68 9.67 18.49 10.40 18.49 10.51C18.49 10.86 19.04 12.61 19.39 13.26C19.60 13.64 20.57 14.43 20.79 14.52C22.39 15.08 22.75 15.04 23.59 15.04C23.72 15.04 24.32 15.06 24.43 15.02C25.27 14.71 27.13 14.24 27.37 12.87ZM35.73 5.61C35.20 5.60 34.64 5.56 33.99 5.50C34.09 5.84 34.03 6.24 34.09 6.69C34.19 7.46 33.98 8.57 33.98 8.79L33.98 11.62C33.98 12.19 33.60 13.44 32.70 13.50C32.40 13.51 31.82 13.76 31.72 13.76C31.30 13.76 30.95 13.50 30.56 13.22C30.41 13.10 30.14 12.98 30.07 12.84C29.88 12.45 29.83 11.75 29.83 11.63L29.83 9.80C29.83 9.69 29.74 9.37 29.74 9.25C29.74 9.14 29.82 8.78 29.83 8.60C29.92 6.59 29.86 5.96 29.82 5.54C29.06 5.77 28.70 5.54 28.32 5.68C28.27 5.64 28.27 5.59 28.27 5.54C28.21 5.88 28.10 8.57 28.10 8.67C28.10 8.79 28.24 10.19 28.25 10.93C28.28 11.68 28.27 12.45 28.45 13.17C28.50 13.43 28.83 13.72 28.92 13.93C29.44 14.95 30.79 15.20 31.67 15.20C32.93 15.20 32.06 15.33 33.40 14.84C36.13 13.86 35.69 10.77 35.64 8.97C35.62 7.85 35.76 6.61 35.73 5.61ZM43.01 12.12C43.01 12.01 42.98 11.55 42.90 11.35C42.78 11.07 42.22 10.43 41.87 10.29C41.62 10.19 41.38 10.05 41.17 10.01C41.01 9.97 40.77 10.00 40.68 9.94C40.28 9.67 38.64 9.76 38.64 8.69C38.64 8.23 39.05 7.35 39.86 7.35C40.17 7.35 40.64 7.52 40.87 7.80C41.12 8.12 41.38 8.50 41.54 8.54C41.82 8.62 42.45 8.78 42.55 8.78C42.70 8.78 42.83 8.44 42.83 8.23C42.83 7.34 41.09 5.59 40.19 5.59C39.14 5.59 36.60 6.13 36.60 8.23C36.60 8.74 36.79 10.42 37.65 10.68C37.81 10.72 38.07 10.70 38.15 10.75C39.21 11.37 41.06 10.86 41.06 12.54C41.06 13.09 40.19 13.75 39.58 13.75C39.00 13.75 38.21 13.45 38.30 12.53C38.05 12.33 36.92 11.90 36.86 11.90C36.69 11.90 36.55 12.46 36.55 12.54C36.55 12.92 36.82 13.23 36.90 13.45C37.53 15.01 39.33 15.29 40.64 15.29C40.75 15.29 41.10 15.32 41.23 15.27C42.32 14.87 43.01 13.13 43.01 12.12Z"></path></g><!----><g data-v-423bf9ae="" id="ea71742a-b83f-4689-b73c-16def9ab7e46" transform="matrix(5.46543714735243,0,0,5.46543714735243,-365.0962410687416,-173.2214369803355)" stroke="none" fill="white"><path d="M344.154 93.112c-8.321 4.054-17.681 8.894-27.393 11.08 6.241 2.696 25.527 31.147 38.853 38.714 21.383 12.145 21.036 18.044 21.036 18.044l-5.38 2.188c-12.291 5.002-25.056 7.537-37.938 7.537-26.8 0-37.646-6.431-52.78-24.412 1.872 36.909-10.652 63.541-44.123 74.099l-4.422 1.395-1.221-4.472c-7.979-29.21-5.173-52.448 3.549-79.804-14.142 14.858-39.059 31.267-64.333 29.578-20.396-1.363-21.834-6.535-28.647-13.363-39.931 38.312-74.499 98.283-74.499 154.006 0 119.29 111.454 215.993 248.938 215.993 137.484 0 248.938-96.703 248.938-215.993-.001-110.969-96.451-202.374-220.578-214.59zm143.075 321.95c-15.804 18.649-35.608 34.057-57.847 44.18-11.103 5.077-22.813 8.729-34.722 10.986-11.927 2.153-24.065 2.941-36.018 1.946 23.881-1.841 46.964-8.316 67.661-19.233 20.727-10.854 39.043-25.888 54.132-43.651 15.106-17.771 27.015-38.244 35.43-60.166 8.477-21.93 13.318-45.294 15.177-69.163 1.868 23.898-1.174 48.346-8.586 71.485-7.445 23.128-19.379 44.971-35.227 63.616z"></path><path d="M246.428 118.59c-12.851 24.217-16.347 59.982-7.902 90.893 31.058-9.797 41.886-49.383 33.59-86.939 11.261 31.252 53.812 50.286 94.845 33.59-5.178-6.842-11.745-7.328-17.783-11.854-19.095-14.317-26.646-40.64-59.277-41.495 34.605-5.57 67.11-13.243 67.182-53.349-15.234 26.918-76.629 7.676-84.965 41.493-5.952-10.67-12.031-26.098-19.759-37.543-6.958-10.304-15.961-27.154-33.591-19.76 12.103 16.877 24.268 33.693 27.664 59.279-11.918-4.805-20.021-14.341-37.543-15.809-17.729-1.485-39.913 8.838-57.303 0 9.44 20.199 21.028 38.25 55.326 33.591-24.297 7.317-31.31 31.922-57.302 37.542 6.279 11.715 23.395 12.579 33.591 11.856 25.906-1.837 47.506-25.881 59.278-39.52 1.596-.375 1.968-1.981 3.949-1.975z"></path></g><!----></svg>